<svg width="428" height="926" viewBox="0 0 428 926" fill="none" xmlns="http://www.w3.org/2000/svg">
<path d="M424 922.001V860.445L389.171 774.239C387.724 770.658 385.266 767.644 382.061 765.522C378.925 763.447 375.289 762.35 371.546 762.35C369.111 762.35 366.718 762.817 364.436 763.739L241.363 813.464C236.658 815.365 232.975 818.985 230.992 823.657C229.009 828.329 228.964 833.493 230.865 838.198L264.724 922.001H424ZM227.407 922.001L198.393 850.187C196.946 846.607 194.487 843.593 191.282 841.471C188.147 839.396 184.512 838.299 180.768 838.299C178.333 838.299 175.941 838.767 173.658 839.689L50.5863 889.414C45.8806 891.315 42.197 894.935 40.2139 899.606C38.2308 904.277 38.1857 909.441 40.0865 914.147L43.2598 922.001H227.407ZM21.0581 862.848C23.4934 862.848 25.8855 862.38 28.1681 861.458L151.241 811.733C155.946 809.832 159.63 806.212 161.613 801.541C163.596 796.869 163.641 791.705 161.74 787L110.908 661.187C109.462 657.607 107.003 654.593 103.798 652.471C100.663 650.396 97.0271 649.299 93.2839 649.299C90.8483 649.299 88.4562 649.767 86.174 650.689L4 683.89V852.227C7.17957 858.705 13.7893 862.848 21.0581 862.848ZM220.933 782.093C223.367 782.093 225.759 781.625 228.043 780.703L351.116 730.979C355.822 729.077 359.505 725.458 361.488 720.786C363.471 716.115 363.516 710.951 361.615 706.245L310.783 580.433C309.336 576.852 306.878 573.839 303.673 571.717C300.538 569.642 296.902 568.545 293.159 568.545C290.724 568.545 288.332 569.012 286.05 569.934L162.977 619.658C158.271 621.56 154.588 625.18 152.605 629.851C150.622 634.522 150.577 639.687 152.478 644.392L203.31 770.204C204.756 773.785 207.215 776.799 210.42 778.921C213.555 780.996 217.19 782.093 220.933 782.093ZM420.662 701.397C421.783 701.397 422.899 701.297 424 701.099V514.198L362.707 538.962C358.001 540.864 354.317 544.484 352.334 549.156C350.351 553.827 350.306 558.991 352.207 563.697L403.038 689.508C404.484 693.089 406.943 696.103 410.148 698.225C413.283 700.3 416.918 701.397 420.662 701.397ZM4 645.691L72.9065 617.851C77.6118 615.95 81.2953 612.33 83.2784 607.658C85.2616 602.986 85.3069 597.821 83.4058 593.116L32.5746 467.305C31.1282 463.724 28.6694 460.71 25.4645 458.588C22.3293 456.513 18.6935 455.416 14.9501 455.416C12.5144 455.416 10.1219 455.883 7.8396 456.805L4 458.357V645.691ZM142.599 588.21C145.036 588.209 147.428 587.742 149.709 586.82L272.782 537.095C277.487 535.194 281.171 531.574 283.154 526.903C285.137 522.231 285.182 517.067 283.281 512.361L232.45 386.55C231.003 382.969 228.544 379.955 225.339 377.833C222.203 375.758 218.568 374.66 214.824 374.66C212.389 374.66 209.997 375.128 207.715 376.05L84.6421 425.775C79.9368 427.676 76.2534 431.296 74.2706 435.967C72.2877 440.639 72.2429 445.803 74.1445 450.509L124.976 576.321C126.422 579.902 128.881 582.916 132.086 585.038C135.221 587.113 138.856 588.21 142.599 588.21ZM342.329 507.514C344.766 507.514 347.158 507.046 349.438 506.125L424 475.999V296.48C422.862 295.829 421.658 295.297 420.404 294.891C418.507 294.277 416.539 293.965 414.554 293.965C412.119 293.965 409.727 294.433 407.444 295.355L284.372 345.079C279.667 346.98 275.983 350.6 274 355.272C272.017 359.944 271.971 365.108 273.872 369.813L324.704 495.625C326.15 499.206 328.609 502.22 331.814 504.342C334.949 506.417 338.585 507.514 342.329 507.514ZM4 425.683C7.94409 420.494 9.07568 413.437 6.49463 407.048L4 400.874V425.683ZM65.5425 389.23C67.9775 389.23 70.3696 388.763 72.6525 387.84L195.724 338.115C200.43 336.214 204.114 332.594 206.097 327.923C208.08 323.252 208.125 318.088 206.223 313.382L155.392 187.569C153.946 183.989 151.487 180.975 148.283 178.854C145.148 176.779 141.512 175.682 137.769 175.682C135.333 175.682 132.941 176.149 130.658 177.072L7.58606 226.796C6.31799 227.308 5.11743 227.949 4 228.708V268.64L47.9185 377.342C49.3652 380.922 51.8237 383.936 55.0287 386.058C58.1638 388.133 61.7994 389.23 65.5425 389.23ZM256.321 313.281C258.757 313.281 261.149 312.814 263.43 311.892L386.503 262.167C391.209 260.266 394.892 256.646 396.875 251.974C398.859 247.302 398.904 242.138 397.003 237.433L346.171 111.621C344.724 108.04 342.265 105.026 339.06 102.905C335.925 100.829 332.289 99.7322 328.546 99.7322C326.111 99.7322 323.719 100.2 321.437 101.122L198.364 150.846C193.658 152.748 189.975 156.367 187.992 161.039C186.009 165.711 185.964 170.875 187.865 175.581L238.697 301.393C240.143 304.974 242.602 307.988 245.807 310.109C248.943 312.184 252.578 313.281 256.321 313.281ZM4 191.232L108.24 149.115C112.946 147.214 116.63 143.594 118.613 138.923C120.596 134.252 120.641 129.088 118.74 124.382L70.103 4.00049H4V191.232ZM424 184.992V59.6836L398.093 70.1509C393.388 72.0518 389.704 75.6716 387.721 80.3433C385.739 85.015 385.694 90.1792 387.595 94.8848L424 184.992ZM177.932 119.475C180.367 119.475 182.76 119.007 185.043 118.085L308.116 68.361C312.821 66.46 316.505 62.8402 318.488 58.1688C320.471 53.4974 320.516 48.3333 318.615 43.6279L302.604 4.00049H118.457L160.31 107.587C161.756 111.167 164.215 114.182 167.419 116.303C170.554 118.379 174.19 119.475 177.932 119.475ZM377.662 38.7792C380.097 38.7792 382.489 38.3115 384.772 37.3893L424 21.5403V4.00049H350.789L360.037 26.8914C361.485 30.4723 363.943 33.4863 367.148 35.6077C370.283 37.6829 373.919 38.7795 377.662 38.7792ZM428 926.001H262.026L227.156 839.697C222.398 827.919 228.089 814.513 239.865 809.756L362.938 760.031C374.715 755.273 388.121 760.962 392.88 772.74L428 859.668V926.001ZM233.337 926.001H40.5618L36.3779 915.645C31.6196 903.868 37.3103 890.463 49.0878 885.705L172.16 835.98C183.938 831.221 197.343 836.911 202.101 848.689L233.337 926.001ZM21.0581 866.848C12.1819 866.848 3.76538 861.676 0 853.109V681.192L84.6755 646.98C96.4529 642.222 109.858 647.911 114.617 659.689L165.449 785.502C170.207 797.279 164.516 810.684 152.739 815.442L29.6666 865.167C26.8442 866.307 23.9265 866.848 21.0581 866.848ZM220.933 786.093C211.835 786.093 203.219 780.658 199.601 771.703L148.769 645.891C144.011 634.113 149.701 620.709 161.478 615.95L284.551 566.226C296.329 561.467 309.733 567.157 314.491 578.935L365.323 704.746C370.082 716.525 364.392 729.928 352.615 734.688L229.541 784.412C226.718 785.552 223.802 786.093 220.933 786.093ZM428 761.759L426.886 759.001C424.208 752.374 424.839 745.231 428 739.404V761.759ZM420.662 705.397C411.562 705.397 402.947 699.962 399.329 691.007L348.498 565.195C343.74 553.418 349.43 540.013 361.208 535.254L428 508.268V704.187C425.578 705.005 423.102 705.397 420.662 705.397ZM0 651.621V455.659L6.34131 453.096C18.1201 448.338 31.5251 454.028 36.2834 465.806L87.1145 591.617C91.8728 603.395 86.1821 616.801 74.4048 621.559L0 651.621ZM142.6 592.21C133.5 592.21 124.885 586.774 121.267 577.819L70.4358 452.007C65.6765 440.23 71.3663 426.824 83.1438 422.066L206.217 372.341C217.994 367.583 231.399 373.274 236.158 385.051L286.989 510.863C291.748 522.64 286.058 536.046 274.28 540.804L151.207 590.529C148.385 591.669 145.467 592.209 142.6 592.21ZM342.329 511.514C333.229 511.514 324.613 506.079 320.995 497.124L270.164 371.312C265.406 359.534 271.096 346.129 282.874 341.37L405.946 291.646C413.538 288.578 421.808 289.853 428 294.302V478.697L350.937 509.833C348.115 510.974 345.197 511.514 342.329 511.514ZM0 434.3V380.296L10.2032 405.549C14.6105 416.459 10.0542 428.763 0 434.3ZM65.5425 393.23C56.4435 393.23 47.8278 387.795 44.2097 378.84L0 269.418V226.718C1.78333 225.237 3.82324 224.002 6.08752 223.087L129.16 173.363C140.937 168.604 154.343 174.294 159.101 186.071L209.932 311.884C214.691 323.661 209.001 337.066 197.222 341.824L74.151 391.549C71.3286 392.689 68.4109 393.23 65.5425 393.23ZM256.321 317.281C247.223 317.281 238.606 311.847 234.988 302.892L184.156 177.079C179.398 165.302 185.089 151.896 196.865 147.138L319.938 97.4128C322.76 96.2727 325.678 95.7322 328.546 95.7322C337.646 95.7322 346.261 101.167 349.879 110.123L400.711 235.935C405.47 247.712 399.779 261.117 388.002 265.876L264.928 315.601C262.106 316.741 259.189 317.281 256.321 317.281ZM428 205.571L383.886 96.3832C379.128 84.606 384.817 71.2003 396.595 66.442L428 53.7533V205.571ZM0 197.162V1.20093L2.97119 0.000488281H72.801L122.449 122.884C127.207 134.661 121.516 148.066 109.739 152.824L0 197.162ZM177.932 123.475C168.834 123.476 160.219 118.04 156.601 109.085L112.527 0.000488281H305.302L322.323 42.1294C327.082 53.9069 321.392 67.3114 309.614 72.0697L186.541 121.794C183.719 122.934 180.801 123.475 177.932 123.475ZM377.662 42.7792C368.562 42.7802 359.948 37.345 356.329 28.39L344.859 0.000488281H428V24.2383L386.271 41.098C383.448 42.2383 380.53 42.7792 377.662 42.7792Z" fill="white" fill-opacity="0.62"/>
</svg>
